<svg width="28" height="24" viewBox="0 0 28 24" fill="none" xmlns="http://www.w3.org/2000/svg">
<g opacity="0.4">
<path d="M16.4259 0.153809H11.935V0.189021C11.8315 0.186371 11.7285 0.18107 11.6242 0.18107C5.21473 0.18107 0 5.48944 0 12.0136C0 18.5377 5.21473 23.8461 11.6242 23.8461C12.2061 23.8461 12.7774 23.8011 13.3367 23.7166H16.4259C22.8078 23.7166 28 18.4317 28 11.9356C28 5.43946 22.8078 0.153809 16.4259 0.153809ZM26.5878 9.64489H23.014C22.8502 8.82857 22.6021 8.04367 22.282 7.2974H25.7917C26.1429 8.0361 26.4108 8.82327 26.5878 9.64489ZM25.162 6.16151H21.7204C21.2405 5.30732 20.6598 4.51978 19.9936 3.81553H23.1446C23.924 4.491 24.6047 5.28158 25.162 6.16151ZM21.557 2.67926H18.7552C18.0719 2.13707 17.3282 1.67059 16.5356 1.29272C18.3597 1.31203 20.0713 1.8141 21.557 2.67926ZM11.6239 22.7102C5.85762 22.7102 1.16639 17.9119 1.16639 12.0136C1.16639 6.11532 5.85762 1.31696 11.6239 1.31696C17.3901 1.31696 22.0813 6.11532 22.0813 12.0136C22.0813 17.9119 17.3901 22.7102 11.6239 22.7102ZM16.8662 22.5694C17.5915 22.1945 18.2729 21.7459 18.9011 21.2309H21.4898C20.1102 22.02 18.539 22.4974 16.8662 22.5694ZM23.1007 20.0947H20.1036C20.7543 19.3874 21.3214 18.6002 21.7877 17.7475H25.1387C24.5743 18.629 23.8871 19.4203 23.1007 20.0947ZM25.7726 16.6117H22.3345C22.6449 15.8654 22.8798 15.079 23.0346 14.2642H26.5793C26.3988 15.0862 26.1269 15.873 25.7726 16.6117ZM23.1948 13.1283C23.2286 12.761 23.2481 12.3896 23.2481 12.0136C23.2481 11.5975 23.2263 11.1863 23.1847 10.7808H26.7706C26.8107 11.1602 26.8328 11.5452 26.8328 11.9356C26.8328 12.3388 26.8087 12.7364 26.7659 13.1283H23.1948Z" fill="black"/>
<path d="M12.363 4.98022H8.85291H8.85214H8.85136C8.34109 4.98022 7.92766 5.38271 7.92766 5.87947V11.8145H6.82116C6.31089 11.8145 5.89746 12.217 5.89746 12.7137C5.89746 13.2105 6.31089 13.613 6.82116 13.613H7.92766V14.692H7.00551C6.49524 14.692 6.08181 15.0945 6.08181 15.5913C6.08181 16.0881 6.49524 16.4905 7.00551 16.4905H7.92766V18.4692C7.92766 18.966 8.34109 19.3685 8.85136 19.3685C9.36163 19.3685 9.77506 18.966 9.77506 18.4692V16.4905H13.2871C13.7973 16.4905 14.2108 16.0881 14.2108 15.5913C14.2108 15.0945 13.7973 14.692 13.2871 14.692H9.77506V13.613H12.3634C13.5441 13.613 14.6565 13.1631 15.4954 12.3461C16.3347 11.5294 16.7971 10.4457 16.7971 9.29621C16.7967 6.91653 14.8078 4.98022 12.363 4.98022ZM14.189 11.0743C13.6986 11.5517 13.0502 11.8145 12.363 11.8145H9.77467V6.77871H12.363C13.7892 6.77871 14.9493 7.90816 14.9493 9.29621C14.9493 9.96563 14.679 10.5968 14.189 11.0743Z" fill="black"/>
</g>
</svg>
