<svg width="50" height="50" viewBox="0 0 50 50" fill="none" xmlns="http://www.w3.org/2000/svg">
<circle cx="25" cy="25" r="24" fill="#0065B1" stroke="#FBFCFC" stroke-width="2"/>
<g clip-path="url(#clip0_31_15903)">
<path d="M36.6485 27.8661C37.1172 28.3542 37.1172 29.1458 36.6485 29.6339L31.8485 34.6339C31.3799 35.122 30.6201 35.122 30.1515 34.6339L25.3515 29.6339C24.8829 29.1457 24.8829 28.3542 25.3515 27.8661C25.8201 27.378 26.5799 27.378 27.0485 27.8661L29.8 30.7322L29.8 16.25C29.8 15.5596 30.3373 15 31 15C31.6627 15 32.2 15.5596 32.2 16.25L32.2 30.7323L34.9515 27.8661C35.4201 27.378 36.1799 27.378 36.6485 27.8661ZM24.6485 22.1339C24.1799 22.622 23.4201 22.622 22.9515 22.1339L20.2 19.2678L20.2 33.75C20.2 34.4404 19.6627 35 19 35C18.3372 35 17.8 34.4404 17.8 33.75L17.8 19.2678L15.0485 22.1339C14.5799 22.622 13.8201 22.622 13.3515 22.1339C12.8829 21.6457 12.8829 20.8543 13.3515 20.3661L18.1515 15.3661C18.3765 15.1317 18.6817 15 19 15C19.3182 15 19.6235 15.1317 19.8485 15.3661L24.6485 20.3661C25.1171 20.8543 25.1171 21.6457 24.6485 22.1339Z" fill="white"/>
</g>
<defs>
<clipPath id="clip0_31_15903">
<rect width="24" height="24" fill="white" transform="translate(37 13) rotate(90)"/>
</clipPath>
</defs>
</svg>
